<svg width="63" height="63" viewBox="0 0 63 63" fill="none" xmlns="http://www.w3.org/2000/svg">
<g filter="url(#filter0_d_1_11)">
<circle cx="31.5" cy="31.5" r="27.5" fill="white"/>
</g>
<path fill-rule="evenodd" clip-rule="evenodd" d="M31.5004 20C26.2999 20 23.0505 22.5557 21.7498 27.6672C23.7001 25.1114 25.9751 24.1532 28.575 24.7918C30.0583 25.156 31.119 26.214 32.2921 27.3853C34.2042 29.2926 36.4173 31.5 41.2502 31.5C46.4499 31.5 49.7001 28.9443 51 23.8336C49.0505 26.3893 46.7754 27.3475 44.1756 26.7082C42.6915 26.344 41.6308 25.286 40.4577 24.1155C38.5456 22.2066 36.3333 20 31.5004 20ZM21.7498 31.5C16.5501 31.5 13.2999 34.0557 12 39.1672C13.9503 36.6114 16.2253 35.6532 18.8244 36.2918C20.3085 36.656 21.3692 37.714 22.5423 38.8853C24.4544 40.7926 26.6667 43 31.5004 43C36.7001 43 39.9503 40.445 41.2502 35.3336C39.2999 37.8893 37.0249 38.8475 34.425 38.209C32.9417 37.844 31.881 36.786 30.7079 35.6155C28.7958 33.7081 26.5827 31.5 21.7498 31.5V31.5Z" fill="#38BDF8"/>
<defs>
<filter id="filter0_d_1_11" x="0" y="0" width="63" height="63" filterUnits="userSpaceOnUse" color-interpolation-filters="sRGB">
<feFlood flood-opacity="0" result="BackgroundImageFix"/>
<feColorMatrix in="SourceAlpha" type="matrix" values="0 0 0 0 0 0 0 0 0 0 0 0 0 0 0 0 0 0 127 0" result="hardAlpha"/>
<feOffset/>
<feGaussianBlur stdDeviation="2"/>
<feComposite in2="hardAlpha" operator="out"/>
<feColorMatrix type="matrix" values="0 0 0 0 0.219608 0 0 0 0 0.741177 0 0 0 0 0.972549 0 0 0 0.13 0"/>
<feBlend mode="normal" in2="BackgroundImageFix" result="effect1_dropShadow_1_11"/>
<feBlend mode="normal" in="SourceGraphic" in2="effect1_dropShadow_1_11" result="shape"/>
</filter>
</defs>
</svg>
