<svg width="165" height="146" viewBox="0 0 165 146" fill="none" xmlns="http://www.w3.org/2000/svg">
<path d="M24.6792 73.424C25.5043 73.5696 25.9168 74.4675 25.9168 76.1176C25.9168 77.7677 24.2181 80.0245 20.8208 82.888C17.472 85.7029 14.2203 87.256 11.0656 87.5472C13.7835 88.9061 16.2829 91.0416 18.564 93.9536C20.8451 96.8656 21.9856 99.3165 21.9856 101.306C21.9856 102.568 21.6944 103.321 21.112 103.563L20.748 103.636C20.748 100.578 18.8795 97.3509 15.1424 93.9536C11.4539 90.5563 7.37707 88.8576 2.912 88.8576C2.912 88.4693 3.17893 88.0568 3.7128 87.62C4.68347 86.8435 5.72693 86.4552 6.8432 86.4552C11.2597 86.4552 15.3365 84.9507 19.0736 81.9416C22.8107 78.884 24.6792 76.0448 24.6792 73.424ZM90.2514 111.426C89.766 111.426 89.5234 111.062 89.5234 110.334C89.5234 109.606 89.9844 108.271 90.9066 106.33C91.8287 104.388 93.8914 99.9232 97.0946 92.9344C100.346 85.8971 103.768 78.4472 107.359 70.5848C110.951 62.6739 113.014 58.136 113.547 56.9712C114.13 55.952 114.785 55.4424 115.513 55.4424C116.387 55.4424 116.823 56.0491 116.823 57.2624C116.823 58.5728 116.314 60.1987 115.295 62.14C115.149 62.4797 111.558 69.6627 104.52 83.6888C97.4828 97.6664 93.0906 106.548 91.3434 110.334C91.0036 111.062 90.6396 111.426 90.2514 111.426ZM131.734 101.306C131.734 99.4136 133.432 97.0597 136.83 94.2448C140.227 91.4299 143.527 89.8768 146.731 89.5856C143.964 88.2752 141.416 86.164 139.087 83.252C136.805 80.2915 135.665 77.8163 135.665 75.8264C135.665 75.1955 135.762 74.6859 135.956 74.2976C136.15 73.8608 136.441 73.5696 136.83 73.424C136.83 76.4816 138.674 79.7091 142.363 83.1064C146.1 86.5037 150.201 88.2024 154.666 88.2024C154.52 88.7848 154.059 89.3429 153.283 89.8768C152.555 90.3621 151.729 90.6048 150.807 90.6048C146.342 90.6048 142.241 92.1093 138.504 95.1184C134.816 98.1275 132.971 100.967 132.971 103.636C132.146 103.49 131.734 102.714 131.734 101.306Z" fill="#456862"/>
<path d="M63.9048 78.6656C62.5458 78.3744 61.4295 77.9133 60.556 77.2824V75.8992C61.5266 76.5301 62.7157 76.9912 64.1231 77.2824C65.5791 68.3523 66.6712 63.0379 67.3991 61.3392C68.1271 59.6405 68.8551 58.1603 69.5831 56.8984C71.0391 54.5203 73.0047 53.3312 75.4799 53.3312C76.1594 53.3312 76.6205 53.6224 76.8632 54.2048L76.9359 54.5688C75.7711 54.5688 74.7519 54.9571 73.8783 55.7336C73.0047 56.5101 72.301 57.4565 71.7671 58.5728C71.2818 59.6891 70.845 61.2421 70.4568 63.232C69.8258 66.3867 69.389 69.2501 69.1463 71.8224C68.9037 74.3947 68.7823 75.7536 68.7823 75.8992C68.7823 76.4331 68.7338 76.9427 68.6367 77.428C70.7237 77.1368 72.5922 76.5787 74.2423 75.7536C74.5335 72.7931 75.3343 70.1965 76.6447 67.964C77.9551 65.6829 79.6053 64.5424 81.5951 64.5424C82.8085 64.5424 83.4151 65.1976 83.4151 66.508C83.4151 69.0803 81.9591 71.6525 79.0471 74.2248C78.4162 74.8072 77.7367 75.3411 77.0087 75.8264C76.8631 76.8456 76.7903 77.7677 76.7903 78.5928C76.7903 82.1843 77.6639 83.98 79.4111 83.98C79.3626 84.5624 78.9501 84.8536 78.1735 84.8536C76.8631 84.8536 75.8682 84.1499 75.1887 82.7424C74.5093 81.3349 74.1695 79.5392 74.1695 77.3552C72.4223 78.1317 70.5295 78.6171 68.4911 78.8112C67.2778 89.1488 65.7247 96.1133 63.8319 99.7048C62.9098 101.452 61.7935 103.126 60.4831 104.728C57.9109 107.883 54.101 109.46 49.0535 109.46C46.5783 109.46 44.4429 108.975 42.6471 108.004C40.8999 107.082 39.6381 105.844 38.8616 104.291C37.8909 102.301 37.4055 100.409 37.4055 98.6128C37.4055 96.8171 37.6725 95.1184 38.2063 93.5168C38.7402 91.8667 39.4682 90.2893 40.3903 88.7848C41.361 87.2317 42.6229 85.9941 44.1759 85.072C45.729 84.1013 47.3791 83.616 49.1263 83.616C50.0485 83.616 50.7037 83.9557 51.0919 84.6352L51.3104 84.9992C47.2335 84.9992 44.0061 86.8677 41.6279 90.6048C40.0749 93.08 39.2983 95.628 39.2983 98.2488C39.2983 99.0739 39.3954 99.9232 39.5895 100.797C40.269 104.34 42.2103 106.475 45.4135 107.203C46.1901 107.397 47.2335 107.494 48.5439 107.494C49.8543 107.494 51.2375 107.13 52.6935 106.402C54.1495 105.723 55.4114 104.631 56.4791 103.126C57.5469 101.573 58.4447 100.02 59.1727 98.4672C59.9493 96.9141 60.653 94.8757 61.2839 92.352C62.1575 88.5664 63.0312 84.0043 63.9048 78.6656ZM92.9519 44.5952C94.5536 44.5952 95.3544 45.5416 95.3544 47.4344C95.3544 48.8904 94.5778 50.2493 93.0247 51.5112C91.5202 52.7245 89.1178 53.3312 85.8175 53.3312C82.5658 53.3312 78.125 52.4333 72.4951 50.6376C66.8653 48.8419 62.5943 47.944 59.6823 47.944C53.4215 47.944 48.5439 50.4435 45.0495 55.4424C42.6714 58.8397 41.4823 62.4797 41.4823 66.3624C41.4823 71.8952 43.3751 75.5595 47.1607 77.3552C48.4711 77.9861 49.9514 78.3016 51.6015 78.3016C51.6015 78.6413 51.4074 79.0053 51.0191 79.3936C50.6309 79.7819 50.1941 79.976 49.7088 79.976C44.6127 79.976 41.0698 77.8648 39.0799 73.6424C38.1578 71.6525 37.6967 69.5656 37.6967 67.3816C37.6967 65.1976 38.1335 62.8923 39.0071 60.4656C40.8999 55.224 44.273 51.3413 49.1263 48.8176C52.281 47.216 55.6055 46.4152 59.0999 46.4152C62.6429 46.4152 67.0109 47.216 72.2039 48.8176C77.4455 50.3707 81.4495 51.1472 84.2159 51.1472C88.3898 51.1472 90.7922 50.1765 91.4231 48.2352C91.7629 47.3131 91.6658 46.7064 91.132 46.4152C91.0349 46.3667 90.9621 46.3424 90.9135 46.3424C91.2047 45.1776 91.8842 44.5952 92.9519 44.5952ZM81.5223 65.9256C80.6973 65.9256 79.8965 66.7021 79.12 68.2552C78.3434 69.7597 77.7367 71.604 77.2999 73.788C79.7266 71.8467 81.2554 69.7597 81.8863 67.5272C81.9834 67.1389 82.0319 66.7749 82.0319 66.4352C82.0319 66.0955 81.8621 65.9256 81.5223 65.9256Z" fill="#24744D"/>
</svg>
